<?xml version="1.0" standalone="no"?><svg xmlns="http://www.w3.org/2000/svg" viewBox="0 0 1440 320"><path fill="#f3f4f5" fill-opacity="1" d="M0,32L20,42.7C40,53,80,75,120,85.3C160,96,200,96,240,112C280,128,320,160,360,186.7C400,213,440,235,480,224C520,213,560,171,600,133.3C640,96,680,64,720,69.3C760,75,800,117,840,138.7C880,160,920,160,960,170.7C1000,181,1040,203,1080,197.3C1120,192,1160,160,1200,149.3C1240,139,1280,149,1320,149.3C1360,149,1400,139,1420,133.3L1440,128L1440,0L1420,0C1400,0,1360,0,1320,0C1280,0,1240,0,1200,0C1160,0,1120,0,1080,0C1040,0,1000,0,960,0C920,0,880,0,840,0C800,0,760,0,720,0C680,0,640,0,600,0C560,0,520,0,480,0C440,0,400,0,360,0C320,0,280,0,240,0C200,0,160,0,120,0C80,0,40,0,20,0L0,0Z"></path></svg>