<?xml version="1.0" standalone="no"?><svg xmlns="http://www.w3.org/2000/svg" viewBox="0 0 1440 320"><path fill="#f3f4f5" fill-opacity="1" d="M0,32L20,42.7C40,53,80,75,120,85.3C160,96,200,96,240,112C280,128,320,160,360,186.7C400,213,440,235,480,224C520,213,560,171,600,133.3C640,96,680,64,720,69.3C760,75,800,117,840,138.7C880,160,920,160,960,170.7C1000,181,1040,203,1080,197.3C1120,192,1160,160,1200,149.3C1240,139,1280,149,1320,149.3C1360,149,1400,139,1420,133.3L1440,128L1440,320L1420,320C1400,320,1360,320,1320,320C1280,320,1240,320,1200,320C1160,320,1120,320,1080,320C1040,320,1000,320,960,320C920,320,880,320,840,320C800,320,760,320,720,320C680,320,640,320,600,320C560,320,520,320,480,320C440,320,400,320,360,320C320,320,280,320,240,320C200,320,160,320,120,320C80,320,40,320,20,320L0,320Z"></path></svg>